<svg width="224" height="29" viewBox="0 0 224 29" fill="none" xmlns="http://www.w3.org/2000/svg">
<path d="M24 26.6C23.6533 26.6 23.08 26.4667 22.28 26.2C21.48 25.96 20.6267 25.6267 19.72 25.2C18.8133 24.8 18.0133 24.3733 17.32 23.92C16.76 23.5467 16.0933 23.08 15.32 22.52C14.5467 21.9333 13.7733 21.3467 13 20.76C12.2533 20.1467 11.6 19.6133 11.04 19.16C10.48 18.68 10.1333 18.3733 10 18.24C9.81333 18.0533 9.72 17.8133 9.72 17.52C9.72 17.3067 9.76 17.0933 9.84 16.88C9.94667 16.64 10.0533 16.4133 10.16 16.2C10.08 16.2 10 16.1867 9.92 16.16C9.84 16.1067 9.8 16.08 9.8 16.08C9.32 15.92 9.08 15.7733 9.08 15.64C9.08 15.3467 9.82667 15.2 11.32 15.2H12.12C12.2533 15.2 12.4 15.2 12.56 15.2C12.72 15.1733 12.88 15.16 13.04 15.16C15.0133 15.16 16.76 14.8533 18.28 14.24C19.8267 13.6267 21.08 12.88 22.04 12C23 11.12 23.6 10.2933 23.84 9.52C23.92 9.22667 23.96 8.97333 23.96 8.76C23.96 7.82667 23.4667 7.06667 22.48 6.48C21.52 5.89333 20.2667 5.45333 18.72 5.16C17.1733 4.86667 15.5467 4.72 13.84 4.72C12.32 4.72 10.8267 4.82667 9.36 5.04C7.89333 5.25333 6.61333 5.58667 5.52 6.04C5.17333 6.17333 4.85333 6.24 4.56 6.24C4.13333 6.24 3.92 6.14667 3.92 5.96C3.92 5.72 4.30667 5.4 5.08 5C6.62667 4.22667 8.21333 3.68 9.84 3.36C11.4933 3.01333 13.12 2.84 14.72 2.84C16.48 2.84 18.1467 3.01333 19.72 3.36C21.2933 3.70667 22.6933 4.18667 23.92 4.8C25.1467 5.38667 26.1067 6.05333 26.8 6.8C27.4933 7.52 27.84 8.26667 27.84 9.04C27.84 9.46667 27.72 9.90667 27.48 10.36C27.2133 10.84 26.6933 11.3467 25.92 11.88C25.1733 12.4133 24.28 12.9467 23.24 13.48C22.2 13.9867 21.0667 14.4533 19.84 14.88C18.64 15.28 17.44 15.5867 16.24 15.8C15.76 15.88 15.2533 15.96 14.72 16.04C14.2133 16.12 13.7067 16.16 13.2 16.16C13.44 16.48 13.8667 17.0267 14.48 17.8C15.0933 18.5733 15.8667 19.44 16.8 20.4C17.7333 21.36 18.7867 22.32 19.96 23.28C20.28 23.52 20.7067 23.8267 21.24 24.2C21.8 24.5733 22.3467 24.9467 22.88 25.32C23.4133 25.6933 23.8 26 24.04 26.24C24.3067 26.48 24.2933 26.6 24 26.6ZM2.04 28.48C1.82667 28.48 1.57333 28.2933 1.28 27.92C0.986667 27.5733 0.733333 26.88 0.52 25.84C0.493333 25.68 0.466667 25.5067 0.44 25.32C0.44 25.16 0.44 24.9867 0.44 24.8C0.44 23.8933 0.56 22.8267 0.8 21.6C1.06667 20.3467 1.41333 19.04 1.84 17.68C2.26667 16.2933 2.73333 14.9333 3.24 13.6C3.74667 12.2667 4.26667 11.04 4.8 9.92C5.33333 8.8 5.82667 7.89333 6.28 7.2C6.65333 6.58667 7.18667 6.17333 7.88 5.96C8.6 5.72 9.28 5.6 9.92 5.6C10.5333 5.6 11.04 5.68 11.44 5.84C11.84 6 11.9467 6.18667 11.76 6.4C10.88 7.49333 9.97333 8.8 9.04 10.32C8.10667 11.8133 7.22667 13.4133 6.4 15.12C5.57333 16.8 4.84 18.4667 4.2 20.12C3.56 21.7733 3.08 23.2933 2.76 24.68C2.44 26.0667 2.33333 27.2133 2.44 28.12C2.44 28.36 2.30667 28.48 2.04 28.48ZM34.005 25.92C32.9383 25.92 31.9383 25.72 31.005 25.32C30.0717 24.9467 29.3117 24.3467 28.725 23.52C28.245 22.8267 27.9117 22.16 27.725 21.52C27.5383 20.8533 27.445 20.2267 27.445 19.64C27.445 19.08 27.5117 18.5733 27.645 18.12C27.7783 17.64 27.9383 17.2533 28.125 16.96C28.685 16 29.2717 15.2 29.885 14.56C30.525 13.92 31.2183 13.3467 31.965 12.84C32.9517 12.2 34.165 11.88 35.605 11.88C36.1383 11.88 36.6983 12.0933 37.285 12.52C37.8717 12.9467 38.725 13.3867 39.845 13.84C40.5917 14.1333 41.285 14.48 41.925 14.88C42.5917 15.2533 43.125 15.64 43.525 16.04C43.9517 16.4133 44.165 16.7733 44.165 17.12C44.165 17.4933 43.8583 17.8 43.245 18.04C42.365 18.3333 41.325 18.6 40.125 18.84C38.925 19.0533 37.725 19.2267 36.525 19.36C35.3517 19.4933 34.3117 19.56 33.405 19.56C32.7117 19.56 32.1783 19.52 31.805 19.44C31.645 20.0267 31.565 20.64 31.565 21.28C31.565 21.8133 31.645 22.3467 31.805 22.88C31.965 23.4133 32.2317 23.9067 32.605 24.36C32.8717 24.6533 33.165 24.8667 33.485 25C33.8317 25.1067 34.1783 25.16 34.525 25.16C35.1117 25.16 35.685 25.0667 36.245 24.88C36.8317 24.6667 37.3383 24.4533 37.765 24.24C38.1917 24 38.4583 23.84 38.565 23.76C39.0983 23.44 39.4983 23.2 39.765 23.04C40.0583 22.88 40.3383 22.8 40.605 22.8C41.085 22.8 41.325 22.9067 41.325 23.12C41.325 23.2533 41.1917 23.4533 40.925 23.72C40.6583 23.96 40.1917 24.24 39.525 24.56C38.6717 24.9867 37.765 25.32 36.805 25.56C35.8717 25.8 34.9383 25.92 34.005 25.92ZM34.325 18.24C35.1783 18.24 36.1783 18.2 37.325 18.12C38.4717 18.0133 39.7117 17.84 41.045 17.6C41.7917 17.44 42.165 17.2133 42.165 16.92C42.165 16.68 41.9917 16.4267 41.645 16.16C41.325 15.8667 40.9117 15.6 40.405 15.36C39.925 15.12 39.445 14.92 38.965 14.76C38.5117 14.5733 38.165 14.48 37.925 14.48C36.7783 14.48 35.7917 14.72 34.965 15.2C34.165 15.68 33.4717 16.3067 32.885 17.08C32.6983 17.32 32.4983 17.6667 32.285 18.12C32.7383 18.2 33.4183 18.24 34.325 18.24ZM50.5284 25.92C49.4618 25.92 48.4618 25.72 47.5284 25.32C46.5951 24.9467 45.8351 24.3467 45.2484 23.52C44.7684 22.8267 44.4351 22.16 44.2484 21.52C44.0618 20.8533 43.9684 20.2267 43.9684 19.64C43.9684 19.08 44.0351 18.5733 44.1684 18.12C44.3018 17.64 44.4618 17.2533 44.6484 16.96C45.2084 16 45.7951 15.2 46.4084 14.56C47.0484 13.92 47.7418 13.3467 48.4884 12.84C49.4751 12.2 50.6884 11.88 52.1284 11.88C52.6618 11.88 53.2218 12.0933 53.8084 12.52C54.3951 12.9467 55.2484 13.3867 56.3684 13.84C57.1151 14.1333 57.8084 14.48 58.4484 14.88C59.1151 15.2533 59.6484 15.64 60.0484 16.04C60.4751 16.4133 60.6884 16.7733 60.6884 17.12C60.6884 17.4933 60.3818 17.8 59.7684 18.04C58.8884 18.3333 57.8484 18.6 56.6484 18.84C55.4484 19.0533 54.2484 19.2267 53.0484 19.36C51.8751 19.4933 50.8351 19.56 49.9284 19.56C49.2351 19.56 48.7018 19.52 48.3284 19.44C48.1684 20.0267 48.0884 20.64 48.0884 21.28C48.0884 21.8133 48.1684 22.3467 48.3284 22.88C48.4884 23.4133 48.7551 23.9067 49.1284 24.36C49.3951 24.6533 49.6884 24.8667 50.0084 25C50.3551 25.1067 50.7018 25.16 51.0484 25.16C51.6351 25.16 52.2084 25.0667 52.7684 24.88C53.3551 24.6667 53.8618 24.4533 54.2884 24.24C54.7151 24 54.9818 23.84 55.0884 23.76C55.6218 23.44 56.0218 23.2 56.2884 23.04C56.5818 22.88 56.8618 22.8 57.1284 22.8C57.6084 22.8 57.8484 22.9067 57.8484 23.12C57.8484 23.2533 57.7151 23.4533 57.4484 23.72C57.1818 23.96 56.7151 24.24 56.0484 24.56C55.1951 24.9867 54.2884 25.32 53.3284 25.56C52.3951 25.8 51.4618 25.92 50.5284 25.92ZM50.8484 18.24C51.7018 18.24 52.7018 18.2 53.8484 18.12C54.9951 18.0133 56.2351 17.84 57.5684 17.6C58.3151 17.44 58.6884 17.2133 58.6884 16.92C58.6884 16.68 58.5151 16.4267 58.1684 16.16C57.8484 15.8667 57.4351 15.6 56.9284 15.36C56.4484 15.12 55.9684 14.92 55.4884 14.76C55.0351 14.5733 54.6884 14.48 54.4484 14.48C53.3018 14.48 52.3151 14.72 51.4884 15.2C50.6884 15.68 49.9951 16.3067 49.4084 17.08C49.2218 17.32 49.0218 17.6667 48.8084 18.12C49.2618 18.2 49.9418 18.24 50.8484 18.24ZM63.3319 25.24C63.2252 25.24 63.0385 25.16 62.7719 25C62.5052 24.8667 62.2519 24.68 62.0119 24.44C61.7985 24.1733 61.6919 23.9067 61.6919 23.64C61.6919 22.8933 61.8119 21.9733 62.0519 20.88C62.3185 19.76 62.6652 18.5867 63.0919 17.36C63.5185 16.1067 63.9719 14.9467 64.4519 13.88C64.6652 13.4267 64.9585 13.12 65.3319 12.96C65.7052 12.7733 66.1052 12.68 66.5319 12.68C67.1452 12.68 67.7185 12.84 68.2519 13.16C68.7852 13.48 69.0519 13.8933 69.0519 14.4C69.0519 14.6667 68.9585 14.9333 68.7719 15.2C68.6385 15.3867 68.4785 15.6533 68.2919 16C68.1052 16.32 67.9452 16.6133 67.8119 16.88C67.6519 17.2 67.6119 17.36 67.6919 17.36C67.7185 17.36 67.8519 17.24 68.0919 17C68.6252 16.4933 69.3452 15.9733 70.2519 15.44C71.1852 14.88 72.1452 14.4133 73.1319 14.04C74.1185 13.64 74.9719 13.44 75.6919 13.44C76.7585 13.44 77.6252 13.7467 78.2919 14.36C78.9852 14.9467 79.4919 15.7067 79.8119 16.64C80.1319 17.5733 80.2919 18.5333 80.2919 19.52C80.2919 21.28 79.8919 22.68 79.0919 23.72C78.9852 23.88 78.7719 24.1067 78.4519 24.4C78.1319 24.6933 77.8919 24.84 77.7319 24.84C77.6519 24.84 77.6119 24.7867 77.6119 24.68C77.6119 24.6267 77.6119 24.5733 77.6119 24.52C77.6385 24.4667 77.6652 24.4 77.6919 24.32C77.9052 23.7333 78.0652 23.0933 78.1719 22.4C78.3052 21.7067 78.3719 21.0133 78.3719 20.32C78.3719 19.44 78.2385 18.6133 77.9719 17.84C77.7319 17.0667 77.3052 16.44 76.6919 15.96C76.1052 15.48 75.2919 15.24 74.2519 15.24C72.6252 15.24 71.2119 15.7467 70.0119 16.76C68.8385 17.7733 67.6652 19.1867 66.4919 21C65.5852 22.3867 64.9052 23.44 64.4519 24.16C63.9985 24.88 63.6252 25.24 63.3319 25.24ZM99.7528 25.64C99.4861 25.64 99.3928 25.3867 99.4728 24.88C99.6061 24.1067 99.6995 23.3333 99.7528 22.56C99.8328 21.76 99.8728 21.0667 99.8728 20.48C99.8728 19.92 99.8328 19.4667 99.7528 19.12C99.6995 18.7467 99.5795 18.56 99.3928 18.56C99.3128 18.56 99.1928 18.6 99.0328 18.68C98.8995 18.76 98.6595 18.92 98.3128 19.16C97.7261 19.5867 96.9661 20.0533 96.0328 20.56C95.1261 21.0667 94.1395 21.5733 93.0728 22.08C92.0061 22.5867 90.9661 23.0667 89.9528 23.52C88.9395 23.9733 88.0328 24.3867 87.2328 24.76C86.7795 24.9467 86.2595 25.04 85.6728 25.04C85.0061 25.04 84.3928 24.9333 83.8328 24.72C83.2995 24.48 83.0328 24.12 83.0328 23.64C83.0328 22.9733 83.2728 22.08 83.7528 20.96C84.2328 19.84 84.9661 18.6267 85.9528 17.32C86.9395 15.9867 88.1661 14.7067 89.6328 13.48C90.6195 12.6533 91.6595 12 92.7528 11.52C93.8461 11.04 95.0328 10.8 96.3128 10.8C96.9795 10.8 97.6861 10.88 98.4328 11.04C99.1795 11.2 99.8061 11.4667 100.313 11.84C100.846 12.2133 101.113 12.7333 101.113 13.4C101.113 13.88 100.993 14.2267 100.753 14.44C100.539 14.6267 100.313 14.72 100.073 14.72C99.7528 14.72 99.3528 14.5867 98.8728 14.32C98.4195 14.0533 97.8061 13.92 97.0328 13.92C96.4728 13.92 95.8995 14.0133 95.3128 14.2C94.7261 14.36 94.0728 14.64 93.3528 15.04C92.1261 15.7333 91.0328 16.4933 90.0728 17.32C89.1128 18.12 88.3528 18.9067 87.7928 19.68C87.2595 20.4533 86.9928 21.12 86.9928 21.68C86.9928 22.08 87.1261 22.4 87.3928 22.64C87.6861 22.88 88.0461 23 88.4728 23C89.1395 23 89.9128 22.8 90.7928 22.4C91.6728 21.9733 92.5128 21.5467 93.3128 21.12C94.9661 20.24 96.2195 19.4933 97.0728 18.88C97.9528 18.2667 98.6195 17.7867 99.0728 17.44C99.5528 17.0667 100.006 16.8133 100.433 16.68C100.513 16.6533 100.659 16.64 100.873 16.64C101.299 16.64 101.766 16.7333 102.273 16.92C102.806 17.08 103.059 17.24 103.033 17.4C103.033 17.88 102.873 18.44 102.553 19.08C102.233 19.6933 101.966 20.4267 101.753 21.28C101.619 21.8667 101.526 22.4 101.473 22.88C101.446 23.3333 101.313 23.9467 101.073 24.72C101.046 24.8267 100.873 25 100.553 25.24C100.233 25.5067 99.9661 25.64 99.7528 25.64ZM116.349 27.32C116.243 27.3467 116.109 27.2267 115.949 26.96C115.763 26.72 115.669 26.3867 115.669 25.96C115.669 25.8267 115.683 25.6933 115.709 25.56C115.709 25.4533 115.723 25.3467 115.749 25.24C115.776 25.1067 115.963 24.5733 116.309 23.64C116.656 22.68 117.096 21.4933 117.629 20.08C118.163 18.64 118.709 17.08 119.269 15.4C119.856 13.72 120.403 12.0667 120.909 10.44C121.443 8.78667 121.869 7.29333 122.189 5.96C122.509 4.62667 122.669 3.6 122.669 2.88C122.669 2.61333 122.656 2.42667 122.629 2.32C122.603 2.18667 122.576 2.06667 122.549 1.96C122.549 1.85333 122.549 1.76 122.549 1.68C122.549 1.30667 122.629 1.04 122.789 0.879998C122.976 0.719999 123.203 0.639999 123.469 0.639999C123.949 0.639999 124.483 0.853332 125.069 1.28C125.683 1.70667 126.203 2.28 126.629 3C127.056 3.72 127.216 4.52 127.109 5.4C127.056 5.85333 126.909 6.41333 126.669 7.08C126.429 7.72 126.163 8.38667 125.869 9.08C125.576 9.77333 125.296 10.4 125.029 10.96C124.789 11.4933 124.629 11.8933 124.549 12.16C124.469 12.4 124.523 12.4133 124.709 12.2C125.056 11.8267 125.563 11.3467 126.229 10.76C126.923 10.1467 127.696 9.53333 128.549 8.92C129.403 8.30667 130.269 7.76 131.149 7.28C132.029 6.8 132.843 6.48 133.589 6.32C133.723 6.29333 133.829 6.28 133.909 6.28C134.016 6.25333 134.123 6.24 134.229 6.24C135.323 6.24 136.136 6.85333 136.669 8.08C137.203 9.28 137.469 10.8533 137.469 12.8C137.469 13.52 137.429 14.28 137.349 15.08C137.269 15.8533 137.163 16.6667 137.029 17.52C136.949 18.0267 136.869 18.6533 136.789 19.4C136.736 20.1467 136.709 20.8267 136.709 21.44C136.709 21.9733 136.736 22.4 136.789 22.72C136.869 23.0133 136.989 23.0667 137.149 22.88C137.923 22.0533 138.696 21.1067 139.469 20.04C140.269 18.9467 141.043 17.8533 141.789 16.76C142.563 15.64 143.336 14.6 144.109 13.64C144.883 12.6533 145.643 11.84 146.389 11.2C147.163 10.5333 147.936 10.12 148.709 9.96C148.789 9.93333 148.869 9.92 148.949 9.92C149.029 9.92 149.109 9.92 149.189 9.92C149.803 9.92 150.256 10.1733 150.549 10.68C150.869 11.1867 151.083 11.8667 151.189 12.72C151.296 13.5467 151.349 14.48 151.349 15.52C151.349 16.4267 151.323 17.3733 151.269 18.36C151.243 19.32 151.229 20.24 151.229 21.12C151.229 21.9467 151.256 22.7067 151.309 23.4C151.389 24.0667 151.523 24.6267 151.709 25.08C151.949 25.64 152.069 26.0667 152.069 26.36C152.069 26.5733 151.989 26.68 151.829 26.68C151.563 26.68 151.149 26.4 150.589 25.84C149.789 25.0667 149.269 24.0667 149.029 22.84C148.789 21.6133 148.669 20.3733 148.669 19.12C148.669 18.1333 148.696 17.2 148.749 16.32C148.829 15.4133 148.869 14.6533 148.869 14.04C148.869 13.56 148.829 13.1867 148.749 12.92C148.669 12.6267 148.523 12.5067 148.309 12.56C147.696 12.6667 147.056 13.04 146.389 13.68C145.723 14.2933 145.029 15.0667 144.309 16C143.616 16.9333 142.883 17.92 142.109 18.96C141.363 19.9733 140.603 20.9333 139.829 21.84C139.056 22.7467 138.269 23.4933 137.469 24.08C136.669 24.6667 135.869 24.9733 135.069 25C134.003 25.0267 133.283 24.7867 132.909 24.28C132.536 23.7467 132.349 23.0667 132.349 22.24C132.349 21.3867 132.456 20.48 132.669 19.52C132.909 18.5333 133.109 17.6133 133.269 16.76C133.429 15.88 133.536 15.08 133.589 14.36C133.669 13.6133 133.709 12.9467 133.709 12.36C133.709 10.8667 133.536 9.8 133.189 9.16C132.843 8.52 132.483 8.26667 132.109 8.4C131.309 8.64 130.363 9.17333 129.269 10C128.176 10.8267 127.016 11.9067 125.789 13.24C124.563 14.5467 123.363 16.0667 122.189 17.8C121.043 19.5067 120.029 21.36 119.149 23.36C118.643 24.48 118.149 25.4 117.669 26.12C117.189 26.8667 116.749 27.2667 116.349 27.32ZM162.091 25.92C161.024 25.92 160.024 25.72 159.091 25.32C158.158 24.9467 157.398 24.3467 156.811 23.52C156.331 22.8267 155.998 22.16 155.811 21.52C155.624 20.8533 155.531 20.2267 155.531 19.64C155.531 19.08 155.598 18.5733 155.731 18.12C155.864 17.64 156.024 17.2533 156.211 16.96C156.771 16 157.358 15.2 157.971 14.56C158.611 13.92 159.304 13.3467 160.051 12.84C161.038 12.2 162.251 11.88 163.691 11.88C164.224 11.88 164.784 12.0933 165.371 12.52C165.958 12.9467 166.811 13.3867 167.931 13.84C168.678 14.1333 169.371 14.48 170.011 14.88C170.678 15.2533 171.211 15.64 171.611 16.04C172.038 16.4133 172.251 16.7733 172.251 17.12C172.251 17.4933 171.944 17.8 171.331 18.04C170.451 18.3333 169.411 18.6 168.211 18.84C167.011 19.0533 165.811 19.2267 164.611 19.36C163.438 19.4933 162.398 19.56 161.491 19.56C160.798 19.56 160.264 19.52 159.891 19.44C159.731 20.0267 159.651 20.64 159.651 21.28C159.651 21.8133 159.731 22.3467 159.891 22.88C160.051 23.4133 160.318 23.9067 160.691 24.36C160.958 24.6533 161.251 24.8667 161.571 25C161.918 25.1067 162.264 25.16 162.611 25.16C163.198 25.16 163.771 25.0667 164.331 24.88C164.918 24.6667 165.424 24.4533 165.851 24.24C166.278 24 166.544 23.84 166.651 23.76C167.184 23.44 167.584 23.2 167.851 23.04C168.144 22.88 168.424 22.8 168.691 22.8C169.171 22.8 169.411 22.9067 169.411 23.12C169.411 23.2533 169.278 23.4533 169.011 23.72C168.744 23.96 168.278 24.24 167.611 24.56C166.758 24.9867 165.851 25.32 164.891 25.56C163.958 25.8 163.024 25.92 162.091 25.92ZM162.411 18.24C163.264 18.24 164.264 18.2 165.411 18.12C166.558 18.0133 167.798 17.84 169.131 17.6C169.878 17.44 170.251 17.2133 170.251 16.92C170.251 16.68 170.078 16.4267 169.731 16.16C169.411 15.8667 168.998 15.6 168.491 15.36C168.011 15.12 167.531 14.92 167.051 14.76C166.598 14.5733 166.251 14.48 166.011 14.48C164.864 14.48 163.878 14.72 163.051 15.2C162.251 15.68 161.558 16.3067 160.971 17.08C160.784 17.32 160.584 17.6667 160.371 18.12C160.824 18.2 161.504 18.24 162.411 18.24ZM175.094 25.16C174.668 25.16 174.201 24.9333 173.694 24.48C173.214 24.0267 172.974 23.44 172.974 22.72C172.974 21.4933 173.121 20.12 173.414 18.6C173.734 17.0533 174.161 15.4933 174.694 13.92C175.228 12.32 175.801 10.8 176.414 9.36C177.054 7.89333 177.694 6.61333 178.334 5.52C178.601 5.06667 178.988 4.69333 179.494 4.4C180.028 4.10667 180.601 3.89333 181.214 3.76C181.828 3.62667 182.374 3.56 182.854 3.56C183.494 3.56 183.894 3.64 184.054 3.8C184.241 3.93333 184.334 4.16 184.334 4.48C184.334 4.74667 184.254 5.06667 184.094 5.44C183.961 5.78667 183.654 6.26667 183.174 6.88C181.734 8.69333 180.614 10.44 179.814 12.12C179.014 13.8 178.454 15.2667 178.134 16.52C177.841 17.7733 177.694 18.7067 177.694 19.32C177.694 19.5867 177.708 19.76 177.734 19.84C177.814 19.7067 177.948 19.5333 178.134 19.32C178.321 19.1067 178.561 18.8667 178.854 18.6C179.494 18.0133 180.241 17.4 181.094 16.76C181.948 16.0933 182.881 15.5333 183.894 15.08C184.908 14.6 185.961 14.36 187.054 14.36C187.774 14.36 188.481 14.4667 189.174 14.68C189.868 14.8667 190.441 15.2133 190.894 15.72C191.374 16.2 191.614 16.88 191.614 17.76C191.614 18.2133 191.494 18.7867 191.254 19.48C191.041 20.1733 190.788 20.88 190.494 21.6C190.201 22.2933 189.948 22.9067 189.734 23.44C189.601 23.7867 189.374 24.08 189.054 24.32C188.761 24.5333 188.508 24.64 188.294 24.64C188.054 24.64 187.934 24.5467 187.934 24.36C187.934 24.2533 187.988 24.0533 188.094 23.76C188.441 22.6667 188.694 21.72 188.854 20.92C189.041 20.0933 189.134 19.3733 189.134 18.76C189.134 17.8 188.948 16.9733 188.574 16.28C188.228 15.5867 187.641 15.24 186.814 15.24C185.988 15.24 185.028 15.5467 183.934 16.16C182.868 16.7733 181.788 17.5733 180.694 18.56C179.628 19.52 178.654 20.5467 177.774 21.64C176.894 22.7333 176.254 23.7467 175.854 24.68C175.694 25 175.441 25.16 175.094 25.16ZM197.043 26.04C196.83 26.04 196.563 25.9467 196.243 25.76C195.923 25.6 195.55 25.2267 195.123 24.64C194.776 24.16 194.51 23.4933 194.323 22.64C194.163 21.7867 194.083 20.9333 194.083 20.08C194.083 18.96 194.15 18.0267 194.283 17.28C194.416 16.5333 194.51 16.0533 194.563 15.84C194.163 15.4667 193.83 15.2 193.563 15.04C193.296 14.88 193.163 14.6933 193.163 14.48C193.163 14.1067 193.416 13.8133 193.923 13.6C194.456 13.36 195.043 13.2133 195.683 13.16C195.923 12.6 196.136 12 196.323 11.36C196.51 10.6933 196.696 10.0667 196.883 9.48C197.07 8.86667 197.27 8.38667 197.483 8.04C197.856 7.42667 198.43 7.01333 199.203 6.8C200.003 6.58667 200.763 6.48 201.483 6.48C202.203 6.48 202.776 6.56 203.203 6.72C203.656 6.85333 203.763 7.01333 203.523 7.2C203.096 7.49333 202.63 8 202.123 8.72C201.616 9.41333 201.123 10.1733 200.643 11C200.163 11.8267 199.723 12.5867 199.323 13.28H204.603C205.563 13.28 206.043 13.36 206.043 13.52C206.043 13.7867 205.456 13.9467 204.283 14C202.763 14.0267 201.643 14.0667 200.923 14.12C200.23 14.1733 199.736 14.2267 199.443 14.28C199.07 14.36 198.79 14.48 198.603 14.64C198.416 14.8 198.256 15.0667 198.123 15.44C197.67 16.5867 197.296 17.7867 197.003 19.04C196.736 20.2667 196.603 21.3867 196.603 22.4C196.603 23.1733 196.683 23.84 196.843 24.4C197.03 24.9333 197.296 25.2933 197.643 25.48C197.723 25.5067 197.763 25.56 197.763 25.64C197.763 25.72 197.696 25.8 197.563 25.88C197.43 25.9867 197.256 26.04 197.043 26.04ZM220.065 25.64C219.799 25.64 219.705 25.3867 219.785 24.88C219.919 24.1067 220.012 23.3333 220.065 22.56C220.145 21.76 220.185 21.0667 220.185 20.48C220.185 19.92 220.145 19.4667 220.065 19.12C220.012 18.7467 219.892 18.56 219.705 18.56C219.625 18.56 219.505 18.6 219.345 18.68C219.212 18.76 218.972 18.92 218.625 19.16C218.039 19.5867 217.279 20.0533 216.345 20.56C215.439 21.0667 214.452 21.5733 213.385 22.08C212.319 22.5867 211.279 23.0667 210.265 23.52C209.252 23.9733 208.345 24.3867 207.545 24.76C207.092 24.9467 206.572 25.04 205.985 25.04C205.319 25.04 204.705 24.9333 204.145 24.72C203.612 24.48 203.345 24.12 203.345 23.64C203.345 22.9733 203.585 22.08 204.065 20.96C204.545 19.84 205.279 18.6267 206.265 17.32C207.252 15.9867 208.479 14.7067 209.945 13.48C210.932 12.6533 211.972 12 213.065 11.52C214.159 11.04 215.345 10.8 216.625 10.8C217.292 10.8 217.999 10.88 218.745 11.04C219.492 11.2 220.119 11.4667 220.625 11.84C221.159 12.2133 221.425 12.7333 221.425 13.4C221.425 13.88 221.305 14.2267 221.065 14.44C220.852 14.6267 220.625 14.72 220.385 14.72C220.065 14.72 219.665 14.5867 219.185 14.32C218.732 14.0533 218.119 13.92 217.345 13.92C216.785 13.92 216.212 14.0133 215.625 14.2C215.039 14.36 214.385 14.64 213.665 15.04C212.439 15.7333 211.345 16.4933 210.385 17.32C209.425 18.12 208.665 18.9067 208.105 19.68C207.572 20.4533 207.305 21.12 207.305 21.68C207.305 22.08 207.439 22.4 207.705 22.64C207.999 22.88 208.359 23 208.785 23C209.452 23 210.225 22.8 211.105 22.4C211.985 21.9733 212.825 21.5467 213.625 21.12C215.279 20.24 216.532 19.4933 217.385 18.88C218.265 18.2667 218.932 17.7867 219.385 17.44C219.865 17.0667 220.319 16.8133 220.745 16.68C220.825 16.6533 220.972 16.64 221.185 16.64C221.612 16.64 222.079 16.7333 222.585 16.92C223.119 17.08 223.372 17.24 223.345 17.4C223.345 17.88 223.185 18.44 222.865 19.08C222.545 19.6933 222.279 20.4267 222.065 21.28C221.932 21.8667 221.839 22.4 221.785 22.88C221.759 23.3333 221.625 23.9467 221.385 24.72C221.359 24.8267 221.185 25 220.865 25.24C220.545 25.5067 220.279 25.64 220.065 25.64Z" fill="#C25858"/>
</svg>
